<svg width="410" height="410" viewBox="0 0 410 410" fill="none" xmlns="http://www.w3.org/2000/svg">
<path d="M361.678 352.368C361.678 365.449 350.698 376.053 337.154 376.053C323.61 376.053 312.631 365.449 312.631 352.368C312.631 339.288 323.61 328.684 337.154 328.684C350.698 328.684 361.678 339.288 361.678 352.368Z" fill="#1F2937"/>
<path d="M49.6846 388.553C49.6846 397.636 42.0599 405 32.6544 405C23.2488 405 15.6242 397.636 15.6242 388.553C15.6242 379.469 23.2488 372.105 32.6544 372.105C42.0599 372.105 49.6846 379.469 49.6846 388.553Z" fill="#1F2937"/>
<path d="M97.3691 351.711C97.3691 360.794 89.7444 368.158 80.3389 368.158C70.9334 368.158 63.3087 360.794 63.3087 351.711C63.3087 342.627 70.9334 335.263 80.3389 335.263C89.7444 335.263 97.3691 342.627 97.3691 351.711Z" fill="#1F2937"/>
<path d="M157.315 297.763C157.315 306.847 149.691 314.211 140.285 314.211C130.88 314.211 123.255 306.847 123.255 297.763C123.255 288.68 130.88 281.316 140.285 281.316C149.691 281.316 157.315 288.68 157.315 297.763Z" fill="#1F2937"/>
<path d="M96.0067 297.763C96.0067 306.847 88.382 314.211 78.9765 314.211C69.571 314.211 61.9463 306.847 61.9463 297.763C61.9463 288.68 69.571 281.316 78.9765 281.316C88.382 281.316 96.0067 288.68 96.0067 297.763Z" fill="#1F2937"/>
<path d="M36.0604 312.237C36.0604 321.32 28.4357 328.684 19.0302 328.684C9.62468 328.684 2 321.32 2 312.237C2 303.153 9.62468 295.789 19.0302 295.789C28.4357 295.789 36.0604 303.153 36.0604 312.237Z" fill="#1F2937"/>
<path d="M41.5101 251.711C41.5101 260.794 33.8854 268.158 24.4799 268.158C15.0743 268.158 7.44966 260.794 7.44966 251.711C7.44966 242.627 15.0743 235.263 24.4799 235.263C33.8854 235.263 41.5101 242.627 41.5101 251.711Z" fill="#1F2937"/>
<path d="M160.04 66.1842C160.04 75.2678 152.416 82.6316 143.01 82.6316C133.605 82.6316 125.98 75.2678 125.98 66.1842C125.98 57.1006 133.605 49.7368 143.01 49.7368C152.416 49.7368 160.04 57.1006 160.04 66.1842Z" fill="#1F2937"/>
<path d="M225.436 160.921C225.436 170.005 217.812 177.368 208.406 177.368C199.001 177.368 191.376 170.005 191.376 160.921C191.376 151.837 199.001 144.474 208.406 144.474C217.812 144.474 225.436 151.837 225.436 160.921Z" fill="#1F2937"/>
<path d="M293.557 135.921C293.557 145.005 285.932 152.368 276.527 152.368C267.121 152.368 259.497 145.005 259.497 135.921C259.497 126.837 267.121 119.474 276.527 119.474C285.932 119.474 293.557 126.837 293.557 135.921Z" fill="#1F2937"/>
<path d="M354.866 188.553C354.866 197.636 347.241 205 337.836 205C328.43 205 320.805 197.636 320.805 188.553C320.805 179.469 328.43 172.105 337.836 172.105C347.241 172.105 354.866 179.469 354.866 188.553Z" fill="#1F2937"/>
<path d="M408 114.868C408 123.952 400.375 131.316 390.97 131.316C381.564 131.316 373.94 123.952 373.94 114.868C373.94 105.785 381.564 98.4211 390.97 98.4211C400.375 98.4211 408 105.785 408 114.868Z" fill="#1F2937"/>
<path d="M398.463 21.4474C398.463 30.531 390.838 37.8947 381.433 37.8947C372.027 37.8947 364.403 30.531 364.403 21.4474C364.403 12.3637 372.027 5 381.433 5C390.838 5 398.463 12.3637 398.463 21.4474Z" fill="#1F2937"/>
<path d="M289.47 353.026C289.47 362.11 281.845 369.474 272.44 369.474C263.034 369.474 255.409 362.11 255.409 353.026C255.409 343.943 263.034 336.579 272.44 336.579C281.845 336.579 289.47 343.943 289.47 353.026Z" fill="#1F2937"/>
<path d="M102.819 65.5263C102.819 78.6067 91.8393 89.2105 78.2953 89.2105C64.7514 89.2105 53.7718 78.6067 53.7718 65.5263C53.7718 52.4459 64.7514 41.8421 78.2953 41.8421C91.8393 41.8421 102.819 52.4459 102.819 65.5263Z" fill="#1F2937"/>
<path d="M164.128 161.579C164.128 174.659 153.148 185.263 139.604 185.263C126.06 185.263 115.081 174.659 115.081 161.579C115.081 148.499 126.06 137.895 139.604 137.895C153.148 137.895 164.128 148.499 164.128 161.579Z" fill="#1F2937"/>
<path d="M301.732 256.316C301.732 269.396 290.752 280 277.208 280C263.664 280 252.685 269.396 252.685 256.316C252.685 243.235 263.664 232.632 277.208 232.632C290.752 232.632 301.732 243.235 301.732 256.316Z" fill="#1F2937"/>
<path d="M361.678 68.1579C361.678 81.2383 350.698 91.8421 337.154 91.8421C323.61 91.8421 312.631 81.2383 312.631 68.1579C312.631 55.0775 323.61 44.4737 337.154 44.4737C350.698 44.4737 361.678 55.0775 361.678 68.1579Z" fill="#1F2937"/>
<path d="M41.5101 379.554L68.572 357.632L72.9498 362.672L45.8879 384.595L41.5101 379.554Z" fill="#1F2937"/>
<path d="M75.5705 341.744V307.534H82.3826V341.744H75.5705Z" fill="#1F2937"/>
<path d="M65.8446 350.26L26.5233 322.129L30.5782 316.842L69.8995 344.973L65.8446 350.26Z" fill="#1F2937"/>
<path d="M87.8322 337.004L126.938 303.684L131.445 308.618L92.3389 341.938L87.8322 337.004Z" fill="#1F2937"/>
<path d="M82.3826 283.374L129.223 177.368L135.488 179.951L88.648 285.956L82.3826 283.374Z" fill="#1F2937"/>
<path d="M68.5695 291.049L29.2482 262.918L33.303 257.632L72.6243 285.763L68.5695 291.049Z" fill="#1F2937"/>
<path d="M75.5705 283.947L75.5705 83.9474H82.3826L82.3826 283.947H75.5705Z" fill="#1F2937"/>
<path d="M96.0067 62.8947H131.43V69.4737H96.0067V62.8947Z" fill="#1F2937"/>
<path d="M126.566 147.018L85.107 83.5088L90.8695 80.0001L132.328 143.509L126.566 147.018Z" fill="#1F2937"/>
<path d="M198.688 149.264L145.268 73.8589L150.89 70.1439L204.31 145.549L198.688 149.264Z" fill="#1F2937"/>
<path d="M263.87 244.646L210.449 169.241L216.072 165.526L269.492 240.931L263.87 244.646Z" fill="#1F2937"/>
<path d="M258.735 247.563L155.953 174.779L159.982 169.474L262.763 242.257L258.735 247.563Z" fill="#1F2937"/>
<path d="M265.555 348.958L146.416 177.081L152.077 173.421L271.216 345.298L265.555 348.958Z" fill="#1F2937"/>
<path d="M138.242 139.211V76.0526H145.054V139.211H138.242Z" fill="#1F2937"/>
<path d="M135.517 282.632V178.684H142.329V282.632H135.517Z" fill="#1F2937"/>
<path d="M282.658 349.737H318.081V356.316H282.658V349.737Z" fill="#1F2937"/>
<path d="M326.82 339.974L284.02 271.56L289.85 268.158L332.65 336.572L326.82 339.974Z" fill="#1F2937"/>
<path d="M341.242 86.5789V332.632H334.43L334.43 86.5789H341.242Z" fill="#1F2937"/>
<path d="M269.034 339.211V273.421H275.846V339.211H269.034Z" fill="#1F2937"/>
<path d="M279.933 147.105V237.895H273.121V147.105H279.933Z" fill="#1F2937"/>
<path d="M334.077 88.9126L286.444 238.447L279.933 236.513L327.566 86.9781L334.077 88.9126Z" fill="#1F2937"/>
<path d="M331.795 77.6972L283.748 131.952L278.571 127.676L326.618 73.421L331.795 77.6972Z" fill="#1F2937"/>
<path d="M328.987 185.672L281.836 146.212L286.297 141.24L333.448 180.7L328.987 185.672Z" fill="#1F2937"/>
<path d="M378.139 109.761L345.329 78.0731L350.146 73.4211L382.956 105.109L378.139 109.761Z" fill="#1F2937"/>
<path d="M374.602 32.1592L351.863 57.7804L346.691 53.499L369.429 27.8778L374.602 32.1592Z" fill="#1F2937"/>
</svg>
