<svg width="210" height="210" viewBox="0 0 210 210" fill="none" xmlns="http://www.w3.org/2000/svg">
<path d="M57 24.5C57 37.4787 46.4787 48 33.5 48C20.5213 48 10 37.4787 10 24.5C10 11.5213 20.5213 1 33.5 1C46.4787 1 57 11.5213 57 24.5Z" fill="#1F2937"/>
<path d="M128 105.5C128 118.479 117.479 129 104.5 129C91.5213 129 81 118.479 81 105.5C81 92.5213 91.5213 82 104.5 82C117.479 82 128 92.5213 128 105.5Z" fill="#1F2937"/>
<path d="M200 24.5C200 37.4787 189.479 48 176.5 48C163.521 48 153 37.4787 153 24.5C153 11.5213 163.521 1 176.5 1C189.479 1 200 11.5213 200 24.5Z" fill="#1F2937"/>
<path d="M200 185.5C200 198.479 189.479 209 176.5 209C163.521 209 153 198.479 153 185.5C153 172.521 163.521 162 176.5 162C189.479 162 200 172.521 200 185.5Z" fill="#1F2937"/>
<path d="M57 185.5C57 198.479 46.4787 209 33.5 209C20.5213 209 10 198.479 10 185.5C10 172.521 20.5213 162 33.5 162C46.4787 162 57 172.521 57 185.5Z" fill="#1F2937"/>
<path d="M171 44H181V166H171V44Z" fill="#1F2937"/>
<path d="M28 46H38V168H28V46Z" fill="#1F2937"/>
<path d="M43 39.5599L50.5477 33L166.355 166.244L158.808 172.804L43 39.5599Z" fill="#1F2937"/>
<path d="M158.449 33L165.996 39.5606L50.1772 172.795L42.6301 166.235L158.449 33Z" fill="#1F2937"/>
</svg>
